<svg x="0" y="0" width="960" height="480" viewBox="0 0 960 480" xmlns="http://www.w3.org/2000/svg" xmlns:xlink="http://www.w3.org/1999/xlink" xmlns:fi="http://pattern.flaticon.com/"><rect x="0px" y="0px" width="100%" height="100%" opacity="1" fill="#56fdf5"/><defs><g transform="matrix(0.14563128352165222 0 0 0.14563128352165222 96 59)" id="L1_23"><path d="m105.363281 55.183594c-.144531-.144532-.300781-.28125-.445312-.421875-.171875-.164063-.339844-.332031-.515625-.492188-.128906-.121093-.269532-.230469-.398438-.347656-.199218-.175781-.394531-.351563-.601562-.519531-.125-.097656-.25-.199219-.378906-.296875-.214844-.171875-.433594-.351563-.65625-.515625-.132813-.097656-.269532-.191406-.40625-.289063-.222657-.15625-.4375-.316406-.664063-.464843-.109375-.074219-.222656-.140626-.332031-.210938-.253906-.167969-.511719-.335938-.769532-.492188-.0625-.035156-.125-.066406-.183593-.097656-.316407-.183594-.628907-.367187-.949219-.539062-.042969-.023438-.085938-.042969-.132812-.066406-.339844-.179688-.679688-.355469-1.027344-.519532-.042969-.019531-.085938-.035156-.125-.054687-.351563-.164063-.699219-.320313-1.0625-.46875l-.085938-.035157c-.773437-.316406-1.558594-.601562-2.355468-.839843-.085938-.023438-.167969-.046875-.25-.070313-.335938-.101562-.667969-.191406-1.007813-.277344l-.035156-.007812c-.410157-.101562-.824219-.195312-1.238281-.277344-.101563-.019531-.210938-.035156-.316407-.054687-.324219-.058594-.648437-.121094-.976562-.167969-.167969-.023438-.335938-.039062-.503907-.0625-.265624-.035156-.535156-.070312-.800781-.101562-.265625-.027344-.542969-.039063-.8125-.058594-.171875-.011719-.339843-.027344-.507812-.035156-.445313-.023438-.890625-.03125-1.335938-.035157-14.738281.019531-26.679687 11.964844-26.699219 26.703125v17.246094c0 3.3125 2.6875 6 6 6h41.40625c3.3125 0 6-2.6875 6-6v-17.25c.023438-7.082031-2.792968-13.878906-7.816406-18.871094zm-4.175781 30.125h-29.410156v-11.246094c.003906-5.945312 3.585937-11.308594 9.082031-13.582031 5.492187-2.273438 11.816406-1.011719 16.019531 3.195312 2.765625 2.746094 4.3125 6.488281 4.300782 10.386719zm0 0"/><path d="m274.199219 47.359375c-14.738281.019531-26.679688 11.960937-26.699219 26.703125v17.246094c0 3.3125 2.6875 6 6 6h41.398438c3.316406 0 6-2.6875 6-6v-17.246094c-.003907-14.742188-11.953126-26.695312-26.699219-26.699219zm14.699219 37.949219h-29.40625v-11.246094c0-5.945312 3.582031-11.308594 9.078124-13.582031 5.496094-2.273438 11.820313-1.011719 16.023438 3.195312 2.761719 2.746094 4.3125 6.488281 4.296875 10.386719zm0 0"/><path d="m221.742188 118.359375h-82.808594c-3.3125 0-6 2.6875-6 6 .121094 26.097656 21.308594 47.191406 47.40625 47.191406 26.09375 0 47.285156-21.09375 47.402344-47.191406 0-3.3125-2.683594-6-6-6zm-16.371094 31.03125c-9.351563 9.359375-23.144532 12.722656-35.753906 8.71875-12.613282-4.003906-21.9375-14.707031-24.175782-27.75h69.800782c-1.230469 7.21875-4.679688 13.871094-9.871094 19.03125zm0 0"/><path d="m317.199219 279.71875h-50.199219c-3.132812-19.953125-21.089844-34.140625-41.230469-32.570312-20.136719 1.570312-35.675781 18.371093-35.675781 38.570312s15.539062 37 35.675781 38.570312c20.140625 1.574219 38.097657-12.613281 41.230469-32.570312h50.199219c40.210937-.042969 72.800781-32.632812 72.84375-72.84375v-58.140625c18.375-14.503906 26.167969-38.667969 19.730469-61.171875-6.4375-22.507812-25.832032-38.894531-49.097657-41.484375v-20.523437c-.023437-20.457032-16.597656-37.03125-37.054687-37.054688h-286.566406c-20.453126.023438-37.0312505 16.597656-37.054688 37.054688v155.820312c.0234375 20.453125 16.601562 37.027344 37.054688 37.054688h12.632812v67.710937c0 2.363281 1.386719 4.507813 3.542969 5.472656 2.15625.96875 4.679687.582031 6.445312-.992187l81.105469-72.191406h182.839844c20.457031-.027344 37.03125-16.601563 37.058594-37.054688v-20.519531c6.003906-.671875 11.863281-2.285157 17.367187-4.789063v50.8125c-.042969 33.585938-27.261719 60.804688-60.847656 60.839844zm-88.425781 32.6875c-14.742188 0-26.691407-11.949219-26.6875-26.6875 0-14.742188 11.949218-26.691406 26.6875-26.6875 14.742187 0 26.6875 11.949219 26.6875 26.6875-.015626 14.734375-11.957032 26.671875-26.6875 26.6875zm119.898437-119.03125c-.015625 13.828125-11.222656 25.039062-25.054687 25.054688h-185.117188c-1.472656 0-2.890625.539062-3.988281 1.515624l-72.824219 64.820313v-60.335937c0-3.316407-2.683594-6-6-6h-18.632812c-13.832032-.015626-25.039063-11.226563-25.054688-25.054688v-155.820312c.015625-13.832032 11.222656-25.039063 25.054688-25.054688h286.566406c13.832031.015625 25.039062 11.222656 25.058594 25.054688zm12-123.203125c22.554687 3.203125 39.320313 22.511719 39.320313 45.292969s-16.765626 42.09375-39.320313 45.292968zm0 0"/></g><g transform="matrix(0.1171875 0 0 0.1171875 195 132)" id="L1_24"><path d="m474.5 18.5h-437c-20.678 0-37.5 16.822-37.5 37.5v330c0 20.678 16.822 37.5 37.5 37.5h160.057l-9.027 31.594c-3.625 12.688-17.835 23.406-31.03 23.406h-56.5c-4.142 0-7.5 3.357-7.5 7.5s3.358 7.5 7.5 7.5h310c4.142 0 7.5-3.357 7.5-7.5s-3.358-7.5-7.5-7.5h-56.5c-13.195 0-27.405-10.719-31.03-23.406l-9.027-31.594h160.057c20.678 0 37.5-16.822 37.5-37.5v-330c0-20.678-16.822-37.5-37.5-37.5zm-437 15h437c12.407 0 22.5 10.094 22.5 22.5v262.5h-482v-262.5c0-12.406 10.093-22.5 22.5-22.5zm271.547 425.715c2.058 7.205 6.149 13.824 11.512 19.285h-129.118c5.363-5.461 9.454-12.081 11.512-19.285l10.204-35.715h85.685zm165.453-50.715h-437c-12.407 0-22.5-10.094-22.5-22.5v-52.5h482v52.5c0 12.406-10.093 22.5-22.5 22.5z"/><path d="m37.5 303.5h437c4.142 0 7.5-3.357 7.5-7.5v-240c0-4.143-3.358-7.5-7.5-7.5h-437c-4.142 0-7.5 3.357-7.5 7.5v105c0 4.143 3.358 7.5 7.5 7.5s7.5-3.357 7.5-7.5v-97.5h422v225h-422v-97.5c0-4.143-3.358-7.5-7.5-7.5s-7.5 3.357-7.5 7.5v105c0 4.143 3.358 7.5 7.5 7.5z"/><path d="m256 348.5c-12.407 0-22.5 10.094-22.5 22.5s10.093 22.5 22.5 22.5 22.5-10.094 22.5-22.5-10.093-22.5-22.5-22.5zm0 30c-4.136 0-7.5-3.364-7.5-7.5s3.364-7.5 7.5-7.5 7.5 3.364 7.5 7.5-3.364 7.5-7.5 7.5z"/></g><g transform="matrix(0.11743958294391632 0 0 0.11743958294391632 96 230)" id="L1_25"><path d="m483.927 224.185c-15.602-49.641-25.629-72.626-30.219-81.911l-.002-.003c-3.69-7.601-13.042-23.957-13.414-24.607-1.31-1.599-33.786-40.463-112.059-69.209l-10.343 28.16c37.01 13.592 62.342 29.288 78.034 41.089-43.344-12.925-94.883-20.835-140.53-20.835-45.702 0-97.303 7.933-140.679 20.886 14.528-10.779 40.946-27.464 78.183-41.14l-10.343-28.16c-78.272 28.746-110.749 67.61-112.059 69.209 0 0-7.715 12.454-14.197 26.129-3.885 8.196-13.949 26.91-29.536 80.716-19.549 67.5-26.492 162.909-26.763 166.726 3.451 7.549 43.451 71.212 151.089 71.212l29.495-42.71c24.345 6.315 49.46 9.51 74.812 9.51 25.406 0 50.571-3.209 74.962-9.549l29.313 42.749c109.779 0 145.613-61.496 151.23-71.384-.434-4.545-11.306-117.023-26.974-166.878zm-28.73 181.831c-22.833 16.16-49.659 24.98-79.833 26.267l-15.133-22.069c20.871-7.865 40.895-18.099 59.712-30.624l-16.623-24.973c-20.989 13.971-43.649 24.781-67.368 32.266v.029s-39.276 12.335-80.555 12.335-80.445-12.299-80.445-12.299v-.031c-23.759-7.486-46.457-18.308-67.478-32.3l-16.624 24.972c18.85 12.547 38.912 22.795 59.823 30.665l-15.213 22.029c-30.187-1.281-57.024-10.102-79.865-26.268-12.734-9.013-20.938-18.15-24.881-23.069 1.74-20.548 8.86-94.827 24.869-150.091 12.015-41.475 20.309-60.884 24.837-70.255 0 0 116.109-35.732 174.977-35.732 58.82 0 130.587 14.613 174.584 35.546 4.757 10.838 13.226 32.259 25.327 70.765 12.767 40.623 22.29 126.948 24.665 149.897-4.001 4.971-12.168 14.016-24.776 22.94z"/><path d="m156.038 252.991h30v50h-30z"/><path d="m324.754 252.991h30v50h-30z"/></g><g transform="matrix(0.12096773833036423 0 0 0.12096773833036423 224 271)" id="L1_26"><circle cx="248" cy="24" r="24" fill="#383a39"/><circle cx="248" cy="472" r="24" fill="#eceeee"/><circle cx="136" cy="53" r="24" fill="#77807f"/><path d="M380.8,430.4c6.4,11.2,2.4,25.6-8.8,32.8c-11.2,6.4-25.6,2.4-32.8-8.8c-6.4-11.2-2.4-25.6,8.8-32.8  C359.2,415.2,374.4,419.2,380.8,430.4z" fill="#f2f4f4"/><path d="M65.6,115.2c11.2,6.4,15.2,20.8,8.8,32.8c-6.4,11.2-20.8,15.2-32.8,8.8c-11.2-6.4-15.2-20.8-8.8-32.8  S54.4,108.8,65.6,115.2z" fill="#9faaa9"/><path d="M454.4,339.2c11.2,6.4,15.2,20.8,8.8,32.8c-6.4,11.2-20.8,15.2-32.8,8.8  c-11.2-6.4-15.2-20.8-8.8-32.8C428,336.8,442.4,332.8,454.4,339.2z" fill="#f2f7f7"/><circle cx="24" cy="248" r="24" fill="#b2bbba"/><circle cx="472" cy="248" r="24" fill="#ffffff"/><path d="M41.6,339.2c11.2-6.4,25.6-2.4,32.8,8.8c6.4,11.2,2.4,25.6-8.8,32.8c-11.2,6.4-25.6,2.4-32.8-8.8  S30.4,346.4,41.6,339.2z" fill="#c5cccb"/><path d="M430.4,115.2c11.2-6.4,25.6-2.4,32.8,8.8c6.4,11.2,2.4,25.6-8.8,32.8c-11.2,6.4-25.6,2.4-32.8-8.8  C415.2,136.8,419.2,121.6,430.4,115.2z"/><path d="M115.2,430.4c6.4-11.2,20.8-15.2,32.8-8.8c11.2,6.4,15.2,20.8,8.8,32.8c-6.4,11.2-20.8,15.2-32.8,8.8  C112.8,456,108.8,441.6,115.2,430.4z" fill="#d9dddd"/><path d="M339.2,41.6c6.4-11.2,20.8-15.2,32.8-8.8c11.2,6.4,15.2,20.8,8.8,32.8c-6.4,11.2-20.8,15.2-32.8,8.8  C336.8,68,332.8,53.6,339.2,41.6z" fill="#111111"/></g><path d="M55.146,51.887L41.588,37.786c3.486-4.144,5.396-9.358,5.396-14.786c0-12.682-10.318-23-23-23s-23,10.318-23,23  s10.318,23,23,23c4.761,0,9.298-1.436,13.177-4.162l13.661,14.208c0.571,0.593,1.339,0.92,2.162,0.92  c0.779,0,1.518-0.297,2.079-0.837C56.255,54.982,56.293,53.08,55.146,51.887z M23.984,6c9.374,0,17,7.626,17,17s-7.626,17-17,17  s-17-7.626-17-17S14.61,6,23.984,6z" transform="matrix(1.0532598495483398 0 0 1.0532598495483398 310 81)" id="L1_27"/></defs><g fi:class="KUsePattern"><pattern id="pattern_L1_23" width="350" height="350" patternUnits="userSpaceOnUse"><use xlink:href="#L1_23" x="-350" y="-350"/><use xlink:href="#L1_23" x="0" y="-350"/><use xlink:href="#L1_23" x="350" y="-350"/><use xlink:href="#L1_23" x="-350" y="0"/><use xlink:href="#L1_23" x="0" y="0"/><use xlink:href="#L1_23" x="350" y="0"/><use xlink:href="#L1_23" x="-350" y="350"/><use xlink:href="#L1_23" x="0" y="350"/><use xlink:href="#L1_23" x="350" y="350"/></pattern><rect x="0" y="0" width="100%" height="100%" fill="url(#pattern_L1_23)"/></g><g fi:class="KUsePattern"><pattern id="pattern_L1_24" width="350" height="350" patternUnits="userSpaceOnUse"><use xlink:href="#L1_24" x="-350" y="-350"/><use xlink:href="#L1_24" x="0" y="-350"/><use xlink:href="#L1_24" x="350" y="-350"/><use xlink:href="#L1_24" x="-350" y="0"/><use xlink:href="#L1_24" x="0" y="0"/><use xlink:href="#L1_24" x="350" y="0"/><use xlink:href="#L1_24" x="-350" y="350"/><use xlink:href="#L1_24" x="0" y="350"/><use xlink:href="#L1_24" x="350" y="350"/></pattern><rect x="0" y="0" width="100%" height="100%" fill="url(#pattern_L1_24)"/></g><g fi:class="KUsePattern"><pattern id="pattern_L1_25" width="350" height="350" patternUnits="userSpaceOnUse"><use xlink:href="#L1_25" x="-350" y="-350"/><use xlink:href="#L1_25" x="0" y="-350"/><use xlink:href="#L1_25" x="350" y="-350"/><use xlink:href="#L1_25" x="-350" y="0"/><use xlink:href="#L1_25" x="0" y="0"/><use xlink:href="#L1_25" x="350" y="0"/><use xlink:href="#L1_25" x="-350" y="350"/><use xlink:href="#L1_25" x="0" y="350"/><use xlink:href="#L1_25" x="350" y="350"/></pattern><rect x="0" y="0" width="100%" height="100%" fill="url(#pattern_L1_25)"/></g><g fi:class="KUsePattern"><pattern id="pattern_L1_26" width="350" height="350" patternUnits="userSpaceOnUse"><use xlink:href="#L1_26" x="-350" y="-350"/><use xlink:href="#L1_26" x="0" y="-350"/><use xlink:href="#L1_26" x="350" y="-350"/><use xlink:href="#L1_26" x="-350" y="0"/><use xlink:href="#L1_26" x="0" y="0"/><use xlink:href="#L1_26" x="350" y="0"/><use xlink:href="#L1_26" x="-350" y="350"/><use xlink:href="#L1_26" x="0" y="350"/><use xlink:href="#L1_26" x="350" y="350"/></pattern><rect x="0" y="0" width="100%" height="100%" fill="url(#pattern_L1_26)"/></g><g fi:class="KUsePattern"><pattern id="pattern_L1_27" width="350" height="350" patternUnits="userSpaceOnUse"><use xlink:href="#L1_27" x="-350" y="-350"/><use xlink:href="#L1_27" x="0" y="-350"/><use xlink:href="#L1_27" x="350" y="-350"/><use xlink:href="#L1_27" x="-350" y="0"/><use xlink:href="#L1_27" x="0" y="0"/><use xlink:href="#L1_27" x="350" y="0"/><use xlink:href="#L1_27" x="-350" y="350"/><use xlink:href="#L1_27" x="0" y="350"/><use xlink:href="#L1_27" x="350" y="350"/></pattern><rect x="0" y="0" width="100%" height="100%" fill="url(#pattern_L1_27)"/></g></svg>