<svg x="0" y="0" width="960" height="480" viewBox="0 0 960 480" xmlns="http://www.w3.org/2000/svg" xmlns:xlink="http://www.w3.org/1999/xlink" xmlns:fi="http://pattern.flaticon.com/"><rect x="0px" y="0px" width="100%" height="100%" opacity="1" fill="#ffffff"/><defs><g transform="matrix(0.1171875 0 0 0.1171875 96 62)" id="L1_0"><path d="m474.5 18.5h-437c-20.678 0-37.5 16.822-37.5 37.5v330c0 20.678 16.822 37.5 37.5 37.5h160.057l-9.027 31.594c-3.625 12.688-17.835 23.406-31.03 23.406h-56.5c-4.142 0-7.5 3.357-7.5 7.5s3.358 7.5 7.5 7.5h310c4.142 0 7.5-3.357 7.5-7.5s-3.358-7.5-7.5-7.5h-56.5c-13.195 0-27.405-10.719-31.03-23.406l-9.027-31.594h160.057c20.678 0 37.5-16.822 37.5-37.5v-330c0-20.678-16.822-37.5-37.5-37.5zm-437 15h437c12.407 0 22.5 10.094 22.5 22.5v262.5h-482v-262.5c0-12.406 10.093-22.5 22.5-22.5zm271.547 425.715c2.058 7.205 6.149 13.824 11.512 19.285h-129.118c5.363-5.461 9.454-12.081 11.512-19.285l10.204-35.715h85.685zm165.453-50.715h-437c-12.407 0-22.5-10.094-22.5-22.5v-52.5h482v52.5c0 12.406-10.093 22.5-22.5 22.5z"/><path d="m37.5 303.5h437c4.142 0 7.5-3.357 7.5-7.5v-240c0-4.143-3.358-7.5-7.5-7.5h-437c-4.142 0-7.5 3.357-7.5 7.5v105c0 4.143 3.358 7.5 7.5 7.5s7.5-3.357 7.5-7.5v-97.5h422v225h-422v-97.5c0-4.143-3.358-7.5-7.5-7.5s-7.5 3.357-7.5 7.5v105c0 4.143 3.358 7.5 7.5 7.5z"/><path d="m256 348.5c-12.407 0-22.5 10.094-22.5 22.5s10.093 22.5 22.5 22.5 22.5-10.094 22.5-22.5-10.093-22.5-22.5-22.5zm0 30c-4.136 0-7.5-3.364-7.5-7.5s3.364-7.5 7.5-7.5 7.5 3.364 7.5 7.5-3.364 7.5-7.5 7.5z"/></g><path d="M55.146,51.887L41.588,37.786c3.486-4.144,5.396-9.358,5.396-14.786c0-12.682-10.318-23-23-23s-23,10.318-23,23  s10.318,23,23,23c4.761,0,9.298-1.436,13.177-4.162l13.661,14.208c0.571,0.593,1.339,0.92,2.162,0.92  c0.779,0,1.518-0.297,2.079-0.837C56.255,54.982,56.293,53.08,55.146,51.887z M23.984,6c9.374,0,17,7.626,17,17s-7.626,17-17,17  s-17-7.626-17-17S14.61,6,23.984,6z" transform="matrix(1.0532598495483398 0 0 1.0532598495483398 169 124)" id="L1_1"/><g transform="matrix(0.1171875 0 0 0.1171875 88 164)" id="L1_2"><path d="M266.667,298.667h170.667c5.888,0,10.667-4.779,10.667-10.667s-4.779-10.667-10.667-10.667H266.667     c-5.888,0-10.667,4.779-10.667,10.667S260.779,298.667,266.667,298.667z"/><path d="M512,202.667V160c0-10.304-3.072-19.84-8.149-28.011c-0.128-0.256-0.149-0.555-0.299-0.789L437.589,25.173     C427.797,9.429,410.859,0,392.299,0H119.723c-18.581,0-35.499,9.429-45.291,25.173L8.469,131.2     c-0.128,0.213-0.128,0.448-0.256,0.683C3.093,140.053,0,149.653,0,160v42.667c0,17.493,8.597,32.939,21.675,42.667     C8.597,255.061,0,270.485,0,288v42.667c0,17.493,8.597,32.939,21.675,42.667C8.597,383.061,0,398.485,0,416v42.667     C0,488.064,23.936,512,53.333,512h139.861c5.909,0,10.667-4.779,10.667-10.667c0-5.888-4.779-10.667-10.667-10.667H53.333     c-17.643,0-32-14.357-32-32V416c0-17.664,14.357-32,32-32h178.432c5.888,0,10.667-4.779,10.667-10.667     c0-5.888-4.779-10.667-10.667-10.667H53.333c-17.643,0-32-14.357-32-32V288c0-17.664,14.357-32,32-32h405.333     c17.643,0,32,14.357,32,32v42.667c0,4.693-1.152,9.408-3.371,13.952c-2.581,5.291-0.405,11.669,4.885,14.272     c5.312,2.603,11.691,0.427,14.272-4.885c3.691-7.509,5.547-15.339,5.547-23.339V288c0-17.493-8.597-32.939-21.675-42.667     C503.403,235.584,512,220.16,512,202.667z M92.544,36.437c5.867-9.451,16.021-15.104,27.157-15.104h272.576     c11.136,0,21.291,5.653,27.179,15.104l44.011,70.72c-1.6-0.171-3.157-0.491-4.8-0.491H53.333c-1.643,0-3.2,0.32-4.8,0.469     L92.544,36.437z M490.667,202.667c0,17.643-14.357,32-32,32H53.333c-17.643,0-32-14.357-32-32V160c0-17.664,14.357-32,32-32     h405.333c17.643,0,32,14.336,32,32V202.667z"/><path d="M42.667,437.333c0,17.643,14.357,32,32,32c17.643,0,32-14.357,32-32c0-17.643-14.357-32-32-32     C57.024,405.333,42.667,419.669,42.667,437.333z M85.333,437.333c0,5.888-4.779,10.667-10.667,10.667S64,443.221,64,437.333     c0-5.888,4.779-10.667,10.667-10.667S85.333,431.445,85.333,437.333z"/><path d="M437.333,362.667c-1.941,0-3.883,0.107-5.781,0.277C413.781,336.277,383.936,320,352,320     c-49.664,0-90.645,37.909-95.509,86.315c-24.555,4.736-43.157,26.411-43.157,52.352c0,29.397,23.936,53.333,53.333,53.333     h170.667C478.507,512,512,478.507,512,437.333S478.507,362.667,437.333,362.667z M437.333,490.667H266.667     c-17.643,0-32-14.357-32-32s14.357-32,32-32c5.888,0,10.667-4.779,10.667-10.667c0-41.173,33.493-74.667,74.667-74.667     c26.667,0,51.52,14.699,64.811,38.357c2.219,3.947,6.613,6.037,11.179,5.269c3.051-0.533,6.144-0.96,9.344-0.96     c29.397,0,53.333,23.936,53.333,53.333S466.731,490.667,437.333,490.667z"/><path d="M437.333,149.333H266.667c-5.888,0-10.667,4.779-10.667,10.667s4.779,10.667,10.667,10.667h170.667     c5.888,0,10.667-4.779,10.667-10.667S443.221,149.333,437.333,149.333z"/><path d="M437.333,192H266.667c-5.888,0-10.667,4.779-10.667,10.667s4.779,10.667,10.667,10.667h170.667     c5.888,0,10.667-4.779,10.667-10.667S443.221,192,437.333,192z"/><path d="M74.667,149.333c-17.643,0-32,14.336-32,32s14.357,32,32,32c17.643,0,32-14.357,32-32     C106.667,163.691,92.309,149.333,74.667,149.333z M74.667,192C68.779,192,64,187.221,64,181.333s4.779-10.667,10.667-10.667     s10.667,4.779,10.667,10.667S80.555,192,74.667,192z"/><path d="M42.667,309.333c0,17.643,14.357,32,32,32c17.643,0,32-14.357,32-32c0-17.643-14.357-32-32-32     C57.024,277.333,42.667,291.669,42.667,309.333z M85.333,309.333c0,5.888-4.779,10.667-10.667,10.667S64,315.221,64,309.333     s4.779-10.667,10.667-10.667S85.333,303.445,85.333,309.333z"/></g><g transform="matrix(0.1171875 0 0 0.1171875 175 201)"><path d="m474.5 18.5h-437c-20.678 0-37.5 16.822-37.5 37.5v330c0 20.678 16.822 37.5 37.5 37.5h160.057l-9.027 31.594c-3.625 12.688-17.835 23.406-31.03 23.406h-56.5c-4.142 0-7.5 3.357-7.5 7.5s3.358 7.5 7.5 7.5h310c4.142 0 7.5-3.357 7.5-7.5s-3.358-7.5-7.5-7.5h-56.5c-13.195 0-27.405-10.719-31.03-23.406l-9.027-31.594h160.057c20.678 0 37.5-16.822 37.5-37.5v-330c0-20.678-16.822-37.5-37.5-37.5zm-437 15h437c12.407 0 22.5 10.094 22.5 22.5v262.5h-482v-262.5c0-12.406 10.093-22.5 22.5-22.5zm271.547 425.715c2.058 7.205 6.149 13.824 11.512 19.285h-129.118c5.363-5.461 9.454-12.081 11.512-19.285l10.204-35.715h85.685zm165.453-50.715h-437c-12.407 0-22.5-10.094-22.5-22.5v-52.5h482v52.5c0 12.406-10.093 22.5-22.5 22.5z"/><path d="m37.5 303.5h437c4.142 0 7.5-3.357 7.5-7.5v-240c0-4.143-3.358-7.5-7.5-7.5h-437c-4.142 0-7.5 3.357-7.5 7.5v105c0 4.143 3.358 7.5 7.5 7.5s7.5-3.357 7.5-7.5v-97.5h422v225h-422v-97.5c0-4.143-3.358-7.5-7.5-7.5s-7.5 3.357-7.5 7.5v105c0 4.143 3.358 7.5 7.5 7.5z"/><path d="m256 348.5c-12.407 0-22.5 10.094-22.5 22.5s10.093 22.5 22.5 22.5 22.5-10.094 22.5-22.5-10.093-22.5-22.5-22.5zm0 30c-4.136 0-7.5-3.364-7.5-7.5s3.364-7.5 7.5-7.5 7.5 3.364 7.5 7.5-3.364 7.5-7.5 7.5z"/></g><g transform="matrix(0.1171875 0 0 0.1171875 210 46)"><path d="M266.667,298.667h170.667c5.888,0,10.667-4.779,10.667-10.667s-4.779-10.667-10.667-10.667H266.667     c-5.888,0-10.667,4.779-10.667,10.667S260.779,298.667,266.667,298.667z"/><path d="M512,202.667V160c0-10.304-3.072-19.84-8.149-28.011c-0.128-0.256-0.149-0.555-0.299-0.789L437.589,25.173     C427.797,9.429,410.859,0,392.299,0H119.723c-18.581,0-35.499,9.429-45.291,25.173L8.469,131.2     c-0.128,0.213-0.128,0.448-0.256,0.683C3.093,140.053,0,149.653,0,160v42.667c0,17.493,8.597,32.939,21.675,42.667     C8.597,255.061,0,270.485,0,288v42.667c0,17.493,8.597,32.939,21.675,42.667C8.597,383.061,0,398.485,0,416v42.667     C0,488.064,23.936,512,53.333,512h139.861c5.909,0,10.667-4.779,10.667-10.667c0-5.888-4.779-10.667-10.667-10.667H53.333     c-17.643,0-32-14.357-32-32V416c0-17.664,14.357-32,32-32h178.432c5.888,0,10.667-4.779,10.667-10.667     c0-5.888-4.779-10.667-10.667-10.667H53.333c-17.643,0-32-14.357-32-32V288c0-17.664,14.357-32,32-32h405.333     c17.643,0,32,14.357,32,32v42.667c0,4.693-1.152,9.408-3.371,13.952c-2.581,5.291-0.405,11.669,4.885,14.272     c5.312,2.603,11.691,0.427,14.272-4.885c3.691-7.509,5.547-15.339,5.547-23.339V288c0-17.493-8.597-32.939-21.675-42.667     C503.403,235.584,512,220.16,512,202.667z M92.544,36.437c5.867-9.451,16.021-15.104,27.157-15.104h272.576     c11.136,0,21.291,5.653,27.179,15.104l44.011,70.72c-1.6-0.171-3.157-0.491-4.8-0.491H53.333c-1.643,0-3.2,0.32-4.8,0.469     L92.544,36.437z M490.667,202.667c0,17.643-14.357,32-32,32H53.333c-17.643,0-32-14.357-32-32V160c0-17.664,14.357-32,32-32     h405.333c17.643,0,32,14.336,32,32V202.667z"/><path d="M42.667,437.333c0,17.643,14.357,32,32,32c17.643,0,32-14.357,32-32c0-17.643-14.357-32-32-32     C57.024,405.333,42.667,419.669,42.667,437.333z M85.333,437.333c0,5.888-4.779,10.667-10.667,10.667S64,443.221,64,437.333     c0-5.888,4.779-10.667,10.667-10.667S85.333,431.445,85.333,437.333z"/><path d="M437.333,362.667c-1.941,0-3.883,0.107-5.781,0.277C413.781,336.277,383.936,320,352,320     c-49.664,0-90.645,37.909-95.509,86.315c-24.555,4.736-43.157,26.411-43.157,52.352c0,29.397,23.936,53.333,53.333,53.333     h170.667C478.507,512,512,478.507,512,437.333S478.507,362.667,437.333,362.667z M437.333,490.667H266.667     c-17.643,0-32-14.357-32-32s14.357-32,32-32c5.888,0,10.667-4.779,10.667-10.667c0-41.173,33.493-74.667,74.667-74.667     c26.667,0,51.52,14.699,64.811,38.357c2.219,3.947,6.613,6.037,11.179,5.269c3.051-0.533,6.144-0.96,9.344-0.96     c29.397,0,53.333,23.936,53.333,53.333S466.731,490.667,437.333,490.667z"/><path d="M437.333,149.333H266.667c-5.888,0-10.667,4.779-10.667,10.667s4.779,10.667,10.667,10.667h170.667     c5.888,0,10.667-4.779,10.667-10.667S443.221,149.333,437.333,149.333z"/><path d="M437.333,192H266.667c-5.888,0-10.667,4.779-10.667,10.667s4.779,10.667,10.667,10.667h170.667     c5.888,0,10.667-4.779,10.667-10.667S443.221,192,437.333,192z"/><path d="M74.667,149.333c-17.643,0-32,14.336-32,32s14.357,32,32,32c17.643,0,32-14.357,32-32     C106.667,163.691,92.309,149.333,74.667,149.333z M74.667,192C68.779,192,64,187.221,64,181.333s4.779-10.667,10.667-10.667     s10.667,4.779,10.667,10.667S80.555,192,74.667,192z"/><path d="M42.667,309.333c0,17.643,14.357,32,32,32c17.643,0,32-14.357,32-32c0-17.643-14.357-32-32-32     C57.024,277.333,42.667,291.669,42.667,309.333z M85.333,309.333c0,5.888-4.779,10.667-10.667,10.667S64,315.221,64,309.333     s4.779-10.667,10.667-10.667S85.333,303.445,85.333,309.333z"/></g><g transform="matrix(0.1171875 0 0 0.1171875 250 197)"><path d="M266.667,298.667h170.667c5.888,0,10.667-4.779,10.667-10.667s-4.779-10.667-10.667-10.667H266.667     c-5.888,0-10.667,4.779-10.667,10.667S260.779,298.667,266.667,298.667z"/><path d="M512,202.667V160c0-10.304-3.072-19.84-8.149-28.011c-0.128-0.256-0.149-0.555-0.299-0.789L437.589,25.173     C427.797,9.429,410.859,0,392.299,0H119.723c-18.581,0-35.499,9.429-45.291,25.173L8.469,131.2     c-0.128,0.213-0.128,0.448-0.256,0.683C3.093,140.053,0,149.653,0,160v42.667c0,17.493,8.597,32.939,21.675,42.667     C8.597,255.061,0,270.485,0,288v42.667c0,17.493,8.597,32.939,21.675,42.667C8.597,383.061,0,398.485,0,416v42.667     C0,488.064,23.936,512,53.333,512h139.861c5.909,0,10.667-4.779,10.667-10.667c0-5.888-4.779-10.667-10.667-10.667H53.333     c-17.643,0-32-14.357-32-32V416c0-17.664,14.357-32,32-32h178.432c5.888,0,10.667-4.779,10.667-10.667     c0-5.888-4.779-10.667-10.667-10.667H53.333c-17.643,0-32-14.357-32-32V288c0-17.664,14.357-32,32-32h405.333     c17.643,0,32,14.357,32,32v42.667c0,4.693-1.152,9.408-3.371,13.952c-2.581,5.291-0.405,11.669,4.885,14.272     c5.312,2.603,11.691,0.427,14.272-4.885c3.691-7.509,5.547-15.339,5.547-23.339V288c0-17.493-8.597-32.939-21.675-42.667     C503.403,235.584,512,220.16,512,202.667z M92.544,36.437c5.867-9.451,16.021-15.104,27.157-15.104h272.576     c11.136,0,21.291,5.653,27.179,15.104l44.011,70.72c-1.6-0.171-3.157-0.491-4.8-0.491H53.333c-1.643,0-3.2,0.32-4.8,0.469     L92.544,36.437z M490.667,202.667c0,17.643-14.357,32-32,32H53.333c-17.643,0-32-14.357-32-32V160c0-17.664,14.357-32,32-32     h405.333c17.643,0,32,14.336,32,32V202.667z"/><path d="M42.667,437.333c0,17.643,14.357,32,32,32c17.643,0,32-14.357,32-32c0-17.643-14.357-32-32-32     C57.024,405.333,42.667,419.669,42.667,437.333z M85.333,437.333c0,5.888-4.779,10.667-10.667,10.667S64,443.221,64,437.333     c0-5.888,4.779-10.667,10.667-10.667S85.333,431.445,85.333,437.333z"/><path d="M437.333,362.667c-1.941,0-3.883,0.107-5.781,0.277C413.781,336.277,383.936,320,352,320     c-49.664,0-90.645,37.909-95.509,86.315c-24.555,4.736-43.157,26.411-43.157,52.352c0,29.397,23.936,53.333,53.333,53.333     h170.667C478.507,512,512,478.507,512,437.333S478.507,362.667,437.333,362.667z M437.333,490.667H266.667     c-17.643,0-32-14.357-32-32s14.357-32,32-32c5.888,0,10.667-4.779,10.667-10.667c0-41.173,33.493-74.667,74.667-74.667     c26.667,0,51.52,14.699,64.811,38.357c2.219,3.947,6.613,6.037,11.179,5.269c3.051-0.533,6.144-0.96,9.344-0.96     c29.397,0,53.333,23.936,53.333,53.333S466.731,490.667,437.333,490.667z"/><path d="M437.333,149.333H266.667c-5.888,0-10.667,4.779-10.667,10.667s4.779,10.667,10.667,10.667h170.667     c5.888,0,10.667-4.779,10.667-10.667S443.221,149.333,437.333,149.333z"/><path d="M437.333,192H266.667c-5.888,0-10.667,4.779-10.667,10.667s4.779,10.667,10.667,10.667h170.667     c5.888,0,10.667-4.779,10.667-10.667S443.221,192,437.333,192z"/><path d="M74.667,149.333c-17.643,0-32,14.336-32,32s14.357,32,32,32c17.643,0,32-14.357,32-32     C106.667,163.691,92.309,149.333,74.667,149.333z M74.667,192C68.779,192,64,187.221,64,181.333s4.779-10.667,10.667-10.667     s10.667,4.779,10.667,10.667S80.555,192,74.667,192z"/><path d="M42.667,309.333c0,17.643,14.357,32,32,32c17.643,0,32-14.357,32-32c0-17.643-14.357-32-32-32     C57.024,277.333,42.667,291.669,42.667,309.333z M85.333,309.333c0,5.888-4.779,10.667-10.667,10.667S64,315.221,64,309.333     s4.779-10.667,10.667-10.667S85.333,303.445,85.333,309.333z"/></g><path d="M55.146,51.887L41.588,37.786c3.486-4.144,5.396-9.358,5.396-14.786c0-12.682-10.318-23-23-23s-23,10.318-23,23  s10.318,23,23,23c4.761,0,9.298-1.436,13.177-4.162l13.661,14.208c0.571,0.593,1.339,0.92,2.162,0.92  c0.779,0,1.518-0.297,2.079-0.837C56.255,54.982,56.293,53.08,55.146,51.887z M23.984,6c9.374,0,17,7.626,17,17s-7.626,17-17,17  s-17-7.626-17-17S14.61,6,23.984,6z" transform="matrix(1.0532598495483398 0 0 1.0532598495483398 60.000003814697266 230)"/><g transform="matrix(0.1171875 0 0 0.1171875 277 150)" id="L1_3"><path d="M501,379V133c0-14.7-12.7-26.7-28.3-26.7H39.3c-15.6,0-28.3,12-28.3,26.7v246c0,14.7,12.7,26.7,28.3,26.7h433.4   C488.3,405.7,501,393.8,501,379z M35.5,379V133c0-0.9,1.5-2.2,3.8-2.2h433.4c2.4,0,3.8,1.4,3.8,2.2v246c0,0.9-1.5,2.2-3.8,2.2H39.3   C37,381.2,35.5,379.9,35.5,379z"/><circle cx="99" cy="191" r="15"/><circle cx="162" cy="191" r="15"/><circle cx="224" cy="191" r="15"/><circle cx="287" cy="191" r="15"/><circle cx="350" cy="191" r="15"/><circle cx="412" cy="191" r="15"/><circle cx="130" cy="256" r="15"/><circle cx="193" cy="256" r="15"/><circle cx="256" cy="256" r="15"/><circle cx="318" cy="256" r="15"/><path d="M381.3,240.7L381.3,240.7c-8.5,0-15.3,6.9-15.3,15.3c0,8.5,6.9,15.3,15.3,15.3l0,0c8.5,0,15.3-6.9,15.3-15.3   C396.6,247.5,389.8,240.7,381.3,240.7z"/><path d="M365.3,308.7H146.7c-6.8,0-12.3,5.5-12.3,12.3s5.5,12.3,12.3,12.3h218.6c6.8,0,12.3-5.5,12.3-12.3S372.1,308.7,365.3,308.7   z"/></g><g transform="matrix(0.1171875 0 0 0.1171875 -22 265)"><path d="m474.5 18.5h-437c-20.678 0-37.5 16.822-37.5 37.5v330c0 20.678 16.822 37.5 37.5 37.5h160.057l-9.027 31.594c-3.625 12.688-17.835 23.406-31.03 23.406h-56.5c-4.142 0-7.5 3.357-7.5 7.5s3.358 7.5 7.5 7.5h310c4.142 0 7.5-3.357 7.5-7.5s-3.358-7.5-7.5-7.5h-56.5c-13.195 0-27.405-10.719-31.03-23.406l-9.027-31.594h160.057c20.678 0 37.5-16.822 37.5-37.5v-330c0-20.678-16.822-37.5-37.5-37.5zm-437 15h437c12.407 0 22.5 10.094 22.5 22.5v262.5h-482v-262.5c0-12.406 10.093-22.5 22.5-22.5zm271.547 425.715c2.058 7.205 6.149 13.824 11.512 19.285h-129.118c5.363-5.461 9.454-12.081 11.512-19.285l10.204-35.715h85.685zm165.453-50.715h-437c-12.407 0-22.5-10.094-22.5-22.5v-52.5h482v52.5c0 12.406-10.093 22.5-22.5 22.5z"/><path d="m37.5 303.5h437c4.142 0 7.5-3.357 7.5-7.5v-240c0-4.143-3.358-7.5-7.5-7.5h-437c-4.142 0-7.5 3.357-7.5 7.5v105c0 4.143 3.358 7.5 7.5 7.5s7.5-3.357 7.5-7.5v-97.5h422v225h-422v-97.5c0-4.143-3.358-7.5-7.5-7.5s-7.5 3.357-7.5 7.5v105c0 4.143 3.358 7.5 7.5 7.5z"/><path d="m256 348.5c-12.407 0-22.5 10.094-22.5 22.5s10.093 22.5 22.5 22.5 22.5-10.094 22.5-22.5-10.093-22.5-22.5-22.5zm0 30c-4.136 0-7.5-3.364-7.5-7.5s3.364-7.5 7.5-7.5 7.5 3.364 7.5 7.5-3.364 7.5-7.5 7.5z"/></g><g transform="matrix(0.1171875 0 0 0.1171875 171 281)"><path d="M501,379V133c0-14.7-12.7-26.7-28.3-26.7H39.3c-15.6,0-28.3,12-28.3,26.7v246c0,14.7,12.7,26.7,28.3,26.7h433.4   C488.3,405.7,501,393.8,501,379z M35.5,379V133c0-0.9,1.5-2.2,3.8-2.2h433.4c2.4,0,3.8,1.4,3.8,2.2v246c0,0.9-1.5,2.2-3.8,2.2H39.3   C37,381.2,35.5,379.9,35.5,379z"/><circle cx="99" cy="191" r="15"/><circle cx="162" cy="191" r="15"/><circle cx="224" cy="191" r="15"/><circle cx="287" cy="191" r="15"/><circle cx="350" cy="191" r="15"/><circle cx="412" cy="191" r="15"/><circle cx="130" cy="256" r="15"/><circle cx="193" cy="256" r="15"/><circle cx="256" cy="256" r="15"/><circle cx="318" cy="256" r="15"/><path d="M381.3,240.7L381.3,240.7c-8.5,0-15.3,6.9-15.3,15.3c0,8.5,6.9,15.3,15.3,15.3l0,0c8.5,0,15.3-6.9,15.3-15.3   C396.6,247.5,389.8,240.7,381.3,240.7z"/><path d="M365.3,308.7H146.7c-6.8,0-12.3,5.5-12.3,12.3s5.5,12.3,12.3,12.3h218.6c6.8,0,12.3-5.5,12.3-12.3S372.1,308.7,365.3,308.7   z"/></g><path d="M55.146,51.887L41.588,37.786c3.486-4.144,5.396-9.358,5.396-14.786c0-12.682-10.318-23-23-23s-23,10.318-23,23  s10.318,23,23,23c4.761,0,9.298-1.436,13.177-4.162l13.661,14.208c0.571,0.593,1.339,0.92,2.162,0.92  c0.779,0,1.518-0.297,2.079-0.837C56.255,54.982,56.293,53.08,55.146,51.887z M23.984,6c9.374,0,17,7.626,17,17s-7.626,17-17,17  s-17-7.626-17-17S14.61,6,23.984,6z" transform="matrix(1.0532598495483398 0 0 1.0532598495483398 259 319)"/><g transform="matrix(0.1171875 0 0 0.1171875 -30 55)"><path d="M266.667,298.667h170.667c5.888,0,10.667-4.779,10.667-10.667s-4.779-10.667-10.667-10.667H266.667     c-5.888,0-10.667,4.779-10.667,10.667S260.779,298.667,266.667,298.667z"/><path d="M512,202.667V160c0-10.304-3.072-19.84-8.149-28.011c-0.128-0.256-0.149-0.555-0.299-0.789L437.589,25.173     C427.797,9.429,410.859,0,392.299,0H119.723c-18.581,0-35.499,9.429-45.291,25.173L8.469,131.2     c-0.128,0.213-0.128,0.448-0.256,0.683C3.093,140.053,0,149.653,0,160v42.667c0,17.493,8.597,32.939,21.675,42.667     C8.597,255.061,0,270.485,0,288v42.667c0,17.493,8.597,32.939,21.675,42.667C8.597,383.061,0,398.485,0,416v42.667     C0,488.064,23.936,512,53.333,512h139.861c5.909,0,10.667-4.779,10.667-10.667c0-5.888-4.779-10.667-10.667-10.667H53.333     c-17.643,0-32-14.357-32-32V416c0-17.664,14.357-32,32-32h178.432c5.888,0,10.667-4.779,10.667-10.667     c0-5.888-4.779-10.667-10.667-10.667H53.333c-17.643,0-32-14.357-32-32V288c0-17.664,14.357-32,32-32h405.333     c17.643,0,32,14.357,32,32v42.667c0,4.693-1.152,9.408-3.371,13.952c-2.581,5.291-0.405,11.669,4.885,14.272     c5.312,2.603,11.691,0.427,14.272-4.885c3.691-7.509,5.547-15.339,5.547-23.339V288c0-17.493-8.597-32.939-21.675-42.667     C503.403,235.584,512,220.16,512,202.667z M92.544,36.437c5.867-9.451,16.021-15.104,27.157-15.104h272.576     c11.136,0,21.291,5.653,27.179,15.104l44.011,70.72c-1.6-0.171-3.157-0.491-4.8-0.491H53.333c-1.643,0-3.2,0.32-4.8,0.469     L92.544,36.437z M490.667,202.667c0,17.643-14.357,32-32,32H53.333c-17.643,0-32-14.357-32-32V160c0-17.664,14.357-32,32-32     h405.333c17.643,0,32,14.336,32,32V202.667z"/><path d="M42.667,437.333c0,17.643,14.357,32,32,32c17.643,0,32-14.357,32-32c0-17.643-14.357-32-32-32     C57.024,405.333,42.667,419.669,42.667,437.333z M85.333,437.333c0,5.888-4.779,10.667-10.667,10.667S64,443.221,64,437.333     c0-5.888,4.779-10.667,10.667-10.667S85.333,431.445,85.333,437.333z"/><path d="M437.333,362.667c-1.941,0-3.883,0.107-5.781,0.277C413.781,336.277,383.936,320,352,320     c-49.664,0-90.645,37.909-95.509,86.315c-24.555,4.736-43.157,26.411-43.157,52.352c0,29.397,23.936,53.333,53.333,53.333     h170.667C478.507,512,512,478.507,512,437.333S478.507,362.667,437.333,362.667z M437.333,490.667H266.667     c-17.643,0-32-14.357-32-32s14.357-32,32-32c5.888,0,10.667-4.779,10.667-10.667c0-41.173,33.493-74.667,74.667-74.667     c26.667,0,51.52,14.699,64.811,38.357c2.219,3.947,6.613,6.037,11.179,5.269c3.051-0.533,6.144-0.96,9.344-0.96     c29.397,0,53.333,23.936,53.333,53.333S466.731,490.667,437.333,490.667z"/><path d="M437.333,149.333H266.667c-5.888,0-10.667,4.779-10.667,10.667s4.779,10.667,10.667,10.667h170.667     c5.888,0,10.667-4.779,10.667-10.667S443.221,149.333,437.333,149.333z"/><path d="M437.333,192H266.667c-5.888,0-10.667,4.779-10.667,10.667s4.779,10.667,10.667,10.667h170.667     c5.888,0,10.667-4.779,10.667-10.667S443.221,192,437.333,192z"/><path d="M74.667,149.333c-17.643,0-32,14.336-32,32s14.357,32,32,32c17.643,0,32-14.357,32-32     C106.667,163.691,92.309,149.333,74.667,149.333z M74.667,192C68.779,192,64,187.221,64,181.333s4.779-10.667,10.667-10.667     s10.667,4.779,10.667,10.667S80.555,192,74.667,192z"/><path d="M42.667,309.333c0,17.643,14.357,32,32,32c17.643,0,32-14.357,32-32c0-17.643-14.357-32-32-32     C57.024,277.333,42.667,291.669,42.667,309.333z M85.333,309.333c0,5.888-4.779,10.667-10.667,10.667S64,315.221,64,309.333     s4.779-10.667,10.667-10.667S85.333,303.445,85.333,309.333z"/></g></defs><g fi:class="KUsePattern"><pattern id="pattern_L1_0" width="350" height="350" patternUnits="userSpaceOnUse"><use xlink:href="#L1_0" x="-350" y="-350"/><use xlink:href="#L1_0" x="0" y="-350"/><use xlink:href="#L1_0" x="350" y="-350"/><use xlink:href="#L1_0" x="-350" y="0"/><use xlink:href="#L1_0" x="0" y="0"/><use xlink:href="#L1_0" x="350" y="0"/><use xlink:href="#L1_0" x="-350" y="350"/><use xlink:href="#L1_0" x="0" y="350"/><use xlink:href="#L1_0" x="350" y="350"/></pattern><rect x="0" y="0" width="100%" height="100%" fill="url(#pattern_L1_0)"/></g><g fi:class="KUsePattern"><pattern id="pattern_L1_1" width="350" height="350" patternUnits="userSpaceOnUse"><use xlink:href="#L1_1" x="-350" y="-350"/><use xlink:href="#L1_1" x="0" y="-350"/><use xlink:href="#L1_1" x="350" y="-350"/><use xlink:href="#L1_1" x="-350" y="0"/><use xlink:href="#L1_1" x="0" y="0"/><use xlink:href="#L1_1" x="350" y="0"/><use xlink:href="#L1_1" x="-350" y="350"/><use xlink:href="#L1_1" x="0" y="350"/><use xlink:href="#L1_1" x="350" y="350"/></pattern><rect x="0" y="0" width="100%" height="100%" fill="url(#pattern_L1_1)"/></g><g fi:class="KUsePattern"><pattern id="pattern_L1_2" width="350" height="350" patternUnits="userSpaceOnUse"><use xlink:href="#L1_2" x="-350" y="-350"/><use xlink:href="#L1_2" x="0" y="-350"/><use xlink:href="#L1_2" x="350" y="-350"/><use xlink:href="#L1_2" x="-350" y="0"/><use xlink:href="#L1_2" x="0" y="0"/><use xlink:href="#L1_2" x="350" y="0"/><use xlink:href="#L1_2" x="-350" y="350"/><use xlink:href="#L1_2" x="0" y="350"/><use xlink:href="#L1_2" x="350" y="350"/></pattern><rect x="0" y="0" width="100%" height="100%" fill="url(#pattern_L1_2)"/></g><g fi:class="KUsePattern" transform="matrix(1 0 0 1 20 20)"><pattern id="pattern_UNKNOWN" width="350" height="350" patternUnits="userSpaceOnUse"><use xlink:href="#UNKNOWN" x="-350" y="-350"/><use xlink:href="#UNKNOWN" x="0" y="-350"/><use xlink:href="#UNKNOWN" x="350" y="-350"/><use xlink:href="#UNKNOWN" x="-350" y="0"/><use xlink:href="#UNKNOWN" x="0" y="0"/><use xlink:href="#UNKNOWN" x="350" y="0"/><use xlink:href="#UNKNOWN" x="-350" y="350"/><use xlink:href="#UNKNOWN" x="0" y="350"/><use xlink:href="#UNKNOWN" x="350" y="350"/></pattern><rect x="0" y="0" width="100%" height="100%" fill="url(#pattern_UNKNOWN)"/></g><g fi:class="KUsePattern" transform="matrix(1 0 0 1 20 20)"><pattern id="pattern_UNKNOWN" width="350" height="350" patternUnits="userSpaceOnUse"><use xlink:href="#UNKNOWN" x="-350" y="-350"/><use xlink:href="#UNKNOWN" x="0" y="-350"/><use xlink:href="#UNKNOWN" x="350" y="-350"/><use xlink:href="#UNKNOWN" x="-350" y="0"/><use xlink:href="#UNKNOWN" x="0" y="0"/><use xlink:href="#UNKNOWN" x="350" y="0"/><use xlink:href="#UNKNOWN" x="-350" y="350"/><use xlink:href="#UNKNOWN" x="0" y="350"/><use xlink:href="#UNKNOWN" x="350" y="350"/></pattern><rect x="0" y="0" width="100%" height="100%" fill="url(#pattern_UNKNOWN)"/></g><g fi:class="KUsePattern" transform="matrix(1 0 0 1 40 40)"><pattern id="pattern_UNKNOWN" width="350" height="350" patternUnits="userSpaceOnUse"><use xlink:href="#UNKNOWN" x="-350" y="-350"/><use xlink:href="#UNKNOWN" x="0" y="-350"/><use xlink:href="#UNKNOWN" x="350" y="-350"/><use xlink:href="#UNKNOWN" x="-350" y="0"/><use xlink:href="#UNKNOWN" x="0" y="0"/><use xlink:href="#UNKNOWN" x="350" y="0"/><use xlink:href="#UNKNOWN" x="-350" y="350"/><use xlink:href="#UNKNOWN" x="0" y="350"/><use xlink:href="#UNKNOWN" x="350" y="350"/></pattern><rect x="0" y="0" width="100%" height="100%" fill="url(#pattern_UNKNOWN)"/></g><g fi:class="KUsePattern" transform="matrix(1 0 0 1 40 40)"><pattern id="pattern_UNKNOWN" width="350" height="350" patternUnits="userSpaceOnUse"><use xlink:href="#UNKNOWN" x="-350" y="-350"/><use xlink:href="#UNKNOWN" x="0" y="-350"/><use xlink:href="#UNKNOWN" x="350" y="-350"/><use xlink:href="#UNKNOWN" x="-350" y="0"/><use xlink:href="#UNKNOWN" x="0" y="0"/><use xlink:href="#UNKNOWN" x="350" y="0"/><use xlink:href="#UNKNOWN" x="-350" y="350"/><use xlink:href="#UNKNOWN" x="0" y="350"/><use xlink:href="#UNKNOWN" x="350" y="350"/></pattern><rect x="0" y="0" width="100%" height="100%" fill="url(#pattern_UNKNOWN)"/></g><g fi:class="KUsePattern"><pattern id="pattern_L1_3" width="350" height="350" patternUnits="userSpaceOnUse"><use xlink:href="#L1_3" x="-350" y="-350"/><use xlink:href="#L1_3" x="0" y="-350"/><use xlink:href="#L1_3" x="350" y="-350"/><use xlink:href="#L1_3" x="-350" y="0"/><use xlink:href="#L1_3" x="0" y="0"/><use xlink:href="#L1_3" x="350" y="0"/><use xlink:href="#L1_3" x="-350" y="350"/><use xlink:href="#L1_3" x="0" y="350"/><use xlink:href="#L1_3" x="350" y="350"/></pattern><rect x="0" y="0" width="100%" height="100%" fill="url(#pattern_L1_3)"/></g><g fi:class="KUsePattern" transform="matrix(1 0 0 1 40 40)"><pattern id="pattern_UNKNOWN" width="350" height="350" patternUnits="userSpaceOnUse"><use xlink:href="#UNKNOWN" x="-350" y="-350"/><use xlink:href="#UNKNOWN" x="0" y="-350"/><use xlink:href="#UNKNOWN" x="350" y="-350"/><use xlink:href="#UNKNOWN" x="-350" y="0"/><use xlink:href="#UNKNOWN" x="0" y="0"/><use xlink:href="#UNKNOWN" x="350" y="0"/><use xlink:href="#UNKNOWN" x="-350" y="350"/><use xlink:href="#UNKNOWN" x="0" y="350"/><use xlink:href="#UNKNOWN" x="350" y="350"/></pattern><rect x="0" y="0" width="100%" height="100%" fill="url(#pattern_UNKNOWN)"/></g><g fi:class="KUsePattern" transform="matrix(1 0 0 1 20 20)"><pattern id="pattern_UNKNOWN" width="350" height="350" patternUnits="userSpaceOnUse"><use xlink:href="#UNKNOWN" x="-350" y="-350"/><use xlink:href="#UNKNOWN" x="0" y="-350"/><use xlink:href="#UNKNOWN" x="350" y="-350"/><use xlink:href="#UNKNOWN" x="-350" y="0"/><use xlink:href="#UNKNOWN" x="0" y="0"/><use xlink:href="#UNKNOWN" x="350" y="0"/><use xlink:href="#UNKNOWN" x="-350" y="350"/><use xlink:href="#UNKNOWN" x="0" y="350"/><use xlink:href="#UNKNOWN" x="350" y="350"/></pattern><rect x="0" y="0" width="100%" height="100%" fill="url(#pattern_UNKNOWN)"/></g><g fi:class="KUsePattern" transform="matrix(1 0 0 1 20 20)"><pattern id="pattern_UNKNOWN" width="350" height="350" patternUnits="userSpaceOnUse"><use xlink:href="#UNKNOWN" x="-350" y="-350"/><use xlink:href="#UNKNOWN" x="0" y="-350"/><use xlink:href="#UNKNOWN" x="350" y="-350"/><use xlink:href="#UNKNOWN" x="-350" y="0"/><use xlink:href="#UNKNOWN" x="0" y="0"/><use xlink:href="#UNKNOWN" x="350" y="0"/><use xlink:href="#UNKNOWN" x="-350" y="350"/><use xlink:href="#UNKNOWN" x="0" y="350"/><use xlink:href="#UNKNOWN" x="350" y="350"/></pattern><rect x="0" y="0" width="100%" height="100%" fill="url(#pattern_UNKNOWN)"/></g><g fi:class="KUsePattern" transform="matrix(1 0 0 1 20 20)"><pattern id="pattern_UNKNOWN" width="350" height="350" patternUnits="userSpaceOnUse"><use xlink:href="#UNKNOWN" x="-350" y="-350"/><use xlink:href="#UNKNOWN" x="0" y="-350"/><use xlink:href="#UNKNOWN" x="350" y="-350"/><use xlink:href="#UNKNOWN" x="-350" y="0"/><use xlink:href="#UNKNOWN" x="0" y="0"/><use xlink:href="#UNKNOWN" x="350" y="0"/><use xlink:href="#UNKNOWN" x="-350" y="350"/><use xlink:href="#UNKNOWN" x="0" y="350"/><use xlink:href="#UNKNOWN" x="350" y="350"/></pattern><rect x="0" y="0" width="100%" height="100%" fill="url(#pattern_UNKNOWN)"/></g></svg>